<svg width="20" height="21" viewBox="0 0 20 21" fill="none" xmlns="http://www.w3.org/2000/svg">
<path d="M10.1833 2.16672H9.81667C9.37464 2.16672 8.95072 2.34231 8.63816 2.65487C8.3256 2.96743 8.15 3.39136 8.15 3.83338V3.98338C8.1497 4.27566 8.07255 4.56271 7.92628 4.81575C7.78002 5.06879 7.56978 5.27892 7.31667 5.42505L6.95834 5.63338C6.70497 5.77966 6.41756 5.85668 6.125 5.85668C5.83244 5.85668 5.54503 5.77966 5.29167 5.63338L5.16667 5.56672C4.78422 5.3461 4.32987 5.28625 3.90334 5.40031C3.47681 5.51436 3.11296 5.793 2.89167 6.17505L2.70833 6.49172C2.48772 6.87416 2.42787 7.32852 2.54192 7.75505C2.65598 8.18158 2.93461 8.54543 3.31667 8.76672L3.44167 8.85005C3.69356 8.99548 3.90302 9.20429 4.04921 9.45574C4.1954 9.7072 4.27325 9.99253 4.275 10.2834V10.7084C4.27617 11.0021 4.19971 11.2908 4.05337 11.5455C3.90703 11.8001 3.69601 12.0115 3.44167 12.1584L3.31667 12.2334C2.93461 12.4547 2.65598 12.8185 2.54192 13.2451C2.42787 13.6716 2.48772 14.1259 2.70833 14.5084L2.89167 14.8251C3.11296 15.2071 3.47681 15.4857 3.90334 15.5998C4.32987 15.7138 4.78422 15.654 5.16667 15.4334L5.29167 15.3667C5.54503 15.2204 5.83244 15.1434 6.125 15.1434C6.41756 15.1434 6.70497 15.2204 6.95834 15.3667L7.31667 15.5751C7.56978 15.7212 7.78002 15.9313 7.92628 16.1844C8.07255 16.4374 8.1497 16.7244 8.15 17.0167V17.1667C8.15 17.6087 8.3256 18.0327 8.63816 18.3452C8.95072 18.6578 9.37464 18.8334 9.81667 18.8334H10.1833C10.6254 18.8334 11.0493 18.6578 11.3618 18.3452C11.6744 18.0327 11.85 17.6087 11.85 17.1667V17.0167C11.8503 16.7244 11.9275 16.4374 12.0737 16.1844C12.22 15.9313 12.4302 15.7212 12.6833 15.5751L13.0417 15.3667C13.295 15.2204 13.5824 15.1434 13.875 15.1434C14.1676 15.1434 14.455 15.2204 14.7083 15.3667L14.8333 15.4334C15.2158 15.654 15.6701 15.7138 16.0967 15.5998C16.5232 15.4857 16.887 15.2071 17.1083 14.8251L17.2917 14.5001C17.5123 14.1176 17.5721 13.6632 17.4581 13.2367C17.344 12.8102 17.0654 12.4463 16.6833 12.2251L16.5583 12.1584C16.304 12.0115 16.093 11.8001 15.9466 11.5455C15.8003 11.2908 15.7238 11.0021 15.725 10.7084V10.2917C15.7238 9.99803 15.8003 9.70926 15.9466 9.45463C16.093 9.2 16.304 8.98856 16.5583 8.84172L16.6833 8.76672C17.0654 8.54543 17.344 8.18158 17.4581 7.75505C17.5721 7.32852 17.5123 6.87416 17.2917 6.49172L17.1083 6.17505C16.887 5.793 16.5232 5.51436 16.0967 5.40031C15.6701 5.28625 15.2158 5.3461 14.8333 5.56672L14.7083 5.63338C14.455 5.77966 14.1676 5.85668 13.875 5.85668C13.5824 5.85668 13.295 5.77966 13.0417 5.63338L12.6833 5.42505C12.4302 5.27892 12.22 5.06879 12.0737 4.81575C11.9275 4.56271 11.8503 4.27566 11.85 3.98338V3.83338C11.85 3.39136 11.6744 2.96743 11.3618 2.65487C11.0493 2.34231 10.6254 2.16672 10.1833 2.16672Z" stroke="white" stroke-width="1.66667" stroke-linecap="round" stroke-linejoin="round"/>
<path d="M10 13C11.3807 13 12.5 11.8807 12.5 10.5C12.5 9.11929 11.3807 8 10 8C8.61929 8 7.5 9.11929 7.5 10.5C7.5 11.8807 8.61929 13 10 13Z" stroke="white" stroke-width="1.66667" stroke-linecap="round" stroke-linejoin="round"/>
</svg>
