<svg width="18" height="18" viewBox="0 0 18 18" fill="none" xmlns="http://www.w3.org/2000/svg">
<rect width="18" height="18" fill="#6A6A6A"/>
<g id="Price">
<path d="M-671 -965C-671 -966.105 -670.105 -967 -669 -967H2884C2885.1 -967 2886 -966.105 2886 -965V607C2886 608.105 2885.1 609 2884 609H-669C-670.105 609 -671 608.105 -671 607V-965Z" fill="#444444"/>
<path d="M-669 -966H2884V-968H-669V-966ZM2885 -965V607H2887V-965H2885ZM2884 608H-669V610H2884V608ZM-670 607V-965H-672V607H-670ZM-669 608C-669.552 608 -670 607.552 -670 607H-672C-672 608.657 -670.657 610 -669 610V608ZM2885 607C2885 607.552 2884.55 608 2884 608V610C2885.66 610 2887 608.657 2887 607H2885ZM2884 -966C2884.55 -966 2885 -965.552 2885 -965H2887C2887 -966.657 2885.66 -968 2884 -968V-966ZM-669 -968C-670.657 -968 -672 -966.657 -672 -965H-670C-670 -965.552 -669.552 -966 -669 -966V-968Z" fill-opacity="0.1"/>
<g id="Price Page" clip-path="url(#clip0_0_1)">
<rect width="1440" height="1348" transform="translate(-571 -867)" fill="#161616"/>
<g id="Frame 48">
<g id="Frame 31">
<g clip-path="url(#clip1_0_1)">
<g id="Frame 6">
<rect x="-32" y="-333" width="362" height="552" rx="16" />
<g id="Frame 38">
<g id="Frame 57">
<g id="Frame 37">
<g id="ic:round-plus">
<path id="Vector" d="M13.5 9.74847H9.75V13.4985C9.75 13.6974 9.67098 13.8882 9.53033 14.0288C9.38968 14.1695 9.19891 14.2485 9 14.2485C8.80109 14.2485 8.61032 14.1695 8.46967 14.0288C8.32902 13.8882 8.25 13.6974 8.25 13.4985V9.74847H4.5C4.30109 9.74847 4.11032 9.66946 3.96967 9.5288C3.82902 9.38815 3.75 9.19739 3.75 8.99847C3.75 8.79956 3.82902 8.6088 3.96967 8.46814C4.11032 8.32749 4.30109 8.24847 4.5 8.24847H8.25V4.49847C8.25 4.29956 8.32902 4.1088 8.46967 3.96814C8.61032 3.82749 8.80109 3.74847 9 3.74847C9.19891 3.74847 9.38968 3.82749 9.53033 3.96814C9.67098 4.1088 9.75 4.29956 9.75 4.49847V8.24847H13.5C13.6989 8.24847 13.8897 8.32749 14.0303 8.46814C14.171 8.6088 14.25 8.79956 14.25 8.99847C14.25 9.19739 14.171 9.38815 14.0303 9.5288C13.8897 9.66946 13.6989 9.74847 13.5 9.74847Z" fill="#6096FD"/>
</g>
</g>
</g>
</g>
</g>
</g>
</g>
</g>
</g>
</g>
<defs>
<clipPath id="clip0_0_1">
<rect width="1440" height="1348" transform="translate(-571 -867)"/>
</clipPath>
<clipPath id="clip1_0_1">
<rect x="-32" y="-333" width="362" height="552" rx="16"/>
</clipPath>
</defs>
</svg>
